<?xml version="1.0" standalone="no"?>
<!DOCTYPE svg PUBLIC "-//W3C//DTD SVG 20010904//EN"
 "http://www.w3.org/TR/2001/REC-SVG-20010904/DTD/svg10.dtd">
<svg version="1.0" xmlns="http://www.w3.org/2000/svg"
 width="900.000000pt" height="900.000000pt" viewBox="0 0 900.000000 900.000000"
 preserveAspectRatio="xMidYMid meet">
<metadata>
Created by potrace 1.14, written by Peter Selinger 2001-2017
</metadata>
<g transform="translate(0.000000,900.000000) scale(0.100000,-0.100000)"
fill="#000000" stroke="none">
<path d="M4205 8989 c-1751 -112 -3289 -1253 -3915 -2904 -138 -366 -221 -725
-272 -1180 -16 -146 -16 -656 0 -815 74 -717 274 -1326 628 -1917 187 -311
373 -549 644 -827 736 -753 1665 -1206 2720 -1326 313 -36 817 -27 1150 20
312 44 692 145 995 265 152 60 447 202 590 284 566 325 1057 774 1447 1324
109 154 328 522 328 552 0 3 -1212 5 -2694 5 -1482 0 -2697 3 -2699 8 -2 4 25
175 61 379 l66 373 2788 0 c1533 0 2788 2 2788 5 0 2 16 68 36 146 47 190 78
349 106 554 20 153 23 209 23 560 0 351 -3 407 -23 560 -72 530 -215 1001
-439 1449 -550 1099 -1524 1929 -2690 2291 -522 163 -1088 230 -1638 194z
m-1475 -2023 c546 -83 1291 -197 1323 -203 l39 -8 248 -600 c137 -330 247
-601 246 -602 -1 -1 -43 -11 -93 -22 -337 -73 -544 -300 -545 -597 -1 -150 43
-264 141 -367 131 -139 303 -217 682 -312 182 -45 293 -87 337 -128 121 -113
63 -304 -107 -353 -76 -23 -229 -16 -293 13 -102 46 -177 148 -200 271 l-12
62 -40 -1 c-73 0 -586 -35 -589 -40 -8 -9 24 -165 48 -232 36 -105 110 -220
190 -296 82 -77 145 -113 264 -152 l86 -28 -271 -1 -271 0 -48 128 c-26 70
-58 151 -71 180 l-23 52 -295 0 -296 0 -5 -22 c-3 -13 -27 -149 -54 -303 -129
-729 -162 -911 -166 -922 -3 -10 -259 -13 -1235 -13 -676 0 -1230 4 -1230 8 0
5 56 132 124 283 68 151 271 600 451 999 180 399 474 1049 652 1445 179 396
429 949 555 1229 272 604 253 565 275 560 10 -2 92 -15 183 -28z m3430 -1731
l0 -295 165 0 165 0 0 -220 0 -220 -166 0 -165 0 3 -333 c3 -372 4 -374 73
-397 20 -7 38 -10 41 -8 3 3 609 1611 656 1741 l10 27 367 0 368 0 106 -282
c117 -312 640 -1703 681 -1810 l25 -68 -353 0 -353 0 -43 148 c-23 81 -47 162
-52 180 l-9 32 -378 0 -378 0 -53 -180 -53 -180 -178 0 c-119 0 -212 -5 -277
-16 -122 -21 -393 -23 -477 -5 -90 20 -157 56 -209 111 -104 111 -116 175
-123 658 l-6 382 -108 0 -109 0 0 220 0 220 110 0 109 0 3 143 3 142 295 152
c162 84 298 152 303 153 4 0 7 -133 7 -295z m-1330 -263 c35 -84 60 -155 58
-158 -10 -10 -213 48 -255 72 -124 72 -85 231 66 270 55 14 44 29 131 -184z
m638 -1539 c5 -16 13 -36 17 -45 7 -17 -3 -18 -126 -18 l-134 1 70 23 c39 12
88 32 110 44 51 27 51 27 63 -5z"/>
<path d="M2620 4953 c-464 -471 -480 -488 -453 -496 55 -14 1406 -238 1411
-233 6 7 -460 1216 -469 1216 -4 0 -224 -219 -489 -487z"/>
<path d="M7296 4940 c-6 -17 -162 -523 -196 -639 -12 -40 -24 -80 -27 -87 -4
-12 35 -14 230 -14 l234 0 -112 363 c-132 430 -121 396 -129 377z"/>
<path d="M4309 3089 c-11 -11 -19 -30 -17 -42 2 -18 11 -23 44 -25 39 -3 42
-1 53 29 8 24 8 36 0 45 -17 20 -56 17 -80 -7z"/>
<path d="M5767 3098 c-9 -7 -17 -26 -19 -43 -3 -28 -1 -30 37 -33 43 -4 65 14
65 54 0 33 -50 46 -83 22z"/>
<path d="M6230 3086 c-6 -8 -10 -25 -8 -38 2 -18 10 -24 35 -26 27 -3 35 1 44
22 7 13 9 32 6 40 -8 20 -60 21 -77 2z"/>
<path d="M6368 3076 c-15 -35 -4 -56 30 -56 36 0 52 16 52 52 0 25 -3 28 -35
28 -28 0 -38 -5 -47 -24z"/>
<path d="M3448 3083 c-20 -5 -19 -1 -53 -175 -33 -166 -32 -208 1 -247 64 -76
252 -60 311 26 30 44 41 78 72 238 21 109 26 152 17 157 -15 10 -48 10 -64 0
-6 -5 -26 -79 -44 -166 -35 -174 -50 -205 -113 -226 -58 -19 -115 11 -115 60
0 15 14 94 30 175 34 168 32 177 -42 158z"/>
<path d="M6995 3068 c-8 -24 -85 -410 -85 -429 0 -17 9 -19 108 -19 92 0 114
4 158 24 41 19 55 33 73 68 11 24 21 56 21 70 0 30 -35 78 -56 78 -9 0 2 16
26 38 34 34 40 45 40 81 0 55 -12 76 -51 90 -46 16 -228 15 -234 -1z m173 -64
c29 -20 28 -55 -3 -88 -19 -21 -33 -26 -70 -26 -25 0 -45 4 -45 8 0 5 5 34 11
65 12 57 12 57 48 57 20 0 47 -7 59 -16z m-10 -197 c6 -5 12 -24 12 -42 0 -49
-37 -75 -106 -75 -30 0 -54 4 -54 8 0 5 5 34 11 65 8 37 17 57 28 60 25 5 94
-4 109 -16z"/>
<path d="M5941 3005 c-9 -38 -15 -45 -35 -45 -24 0 -36 -17 -36 -51 0 -13 7
-19 24 -19 l24 0 -14 -67 c-29 -146 -29 -159 0 -188 24 -24 33 -27 73 -22 51
5 58 11 67 50 7 27 5 28 -22 22 -50 -11 -57 11 -36 115 l18 90 38 0 c27 0 40
5 48 19 20 38 13 51 -30 51 l-40 0 7 45 6 45 -40 0 c-40 0 -41 -1 -52 -45z"/>
<path d="M6591 3028 c-5 -13 -10 -32 -12 -43 -3 -13 -14 -21 -31 -23 -18 -2
-28 -11 -32 -28 -8 -31 -1 -44 25 -44 10 0 19 -2 19 -4 0 -2 -9 -48 -20 -103
-24 -114 -18 -147 27 -164 29 -11 90 -6 104 8 4 4 11 21 15 37 6 27 6 28 -23
22 -50 -11 -56 7 -35 110 l18 89 34 3 c43 4 60 18 60 48 0 21 -5 24 -40 24
-39 0 -39 0 -33 33 3 17 6 37 7 42 0 6 -16 11 -37 13 -31 3 -38 -1 -46 -20z"/>
<path d="M3904 2960 c-16 -6 -24 -32 -48 -156 -16 -82 -31 -157 -34 -167 -4
-16 1 -18 39 -15 l43 3 23 97 c25 108 42 142 84 163 31 17 55 12 61 -13 4 -14
-19 -156 -37 -229 -5 -21 -2 -23 38 -23 l44 0 22 108 c28 143 28 192 -2 220
-40 38 -135 20 -173 -32 -16 -20 -16 -20 -11 10 7 35 -11 47 -49 34z"/>
<path d="M4303 2962 c-26 -4 -24 1 -58 -172 -14 -74 -28 -143 -31 -152 -5 -15
2 -18 40 -18 25 0 46 1 46 3 0 1 14 71 30 156 17 85 30 160 30 166 0 15 -26
22 -57 17z"/>
<path d="M4443 2963 c-13 -2 -23 -7 -23 -11 0 -4 9 -74 20 -157 11 -82 20
-156 20 -162 0 -9 18 -13 55 -13 53 0 56 1 86 43 34 45 124 225 134 268 8 31
-10 42 -53 33 -24 -5 -31 -15 -51 -72 -26 -74 -80 -182 -91 -182 -4 0 -12 55
-19 122 -6 67 -13 123 -14 124 -8 6 -46 10 -64 7z"/>
<path d="M4868 2950 c-122 -65 -158 -282 -54 -325 76 -32 194 -10 207 37 4 15
5 29 3 31 -2 2 -30 -3 -62 -11 -50 -13 -61 -13 -87 -1 -24 11 -31 21 -33 50
l-3 36 73 5 c118 8 177 52 164 123 -13 70 -124 99 -208 55z m106 -46 c22 -9
20 -51 -4 -64 -10 -6 -40 -13 -65 -16 -38 -6 -45 -4 -45 10 0 10 13 31 29 47
29 28 53 35 85 23z"/>
<path d="M5198 2962 c-21 -4 -20 -4 -53 -167 -14 -71 -29 -140 -32 -152 -5
-21 -2 -23 40 -23 44 0 45 1 52 38 23 129 37 170 67 201 26 26 38 32 60 27 23
-4 29 -2 33 17 12 58 11 62 -22 65 -24 2 -40 -5 -69 -30 l-37 -33 6 26 c7 28
-9 39 -45 31z"/>
<path d="M5473 2955 c-40 -17 -65 -54 -66 -99 -1 -41 21 -70 76 -97 27 -15 37
-26 37 -44 0 -43 -59 -58 -114 -30 -31 17 -46 8 -46 -26 0 -25 23 -39 78 -46
97 -11 172 40 172 118 0 45 -18 68 -80 99 -83 42 -22 108 65 68 29 -13 31 -12
40 23 5 21 2 27 -20 37 -34 16 -102 15 -142 -3z"/>
<path d="M5754 2962 c-20 -3 -25 -19 -53 -163 -17 -87 -31 -164 -31 -170 0 -6
17 -9 42 -7 l41 3 33 165 c19 91 34 166 34 166 1 5 -48 9 -66 6z"/>
<path d="M6225 2958 c-71 -39 -115 -127 -115 -229 0 -54 3 -64 30 -91 28 -27
36 -30 75 -25 27 3 59 15 80 32 l36 27 -7 -27 c-6 -25 -5 -26 32 -23 l38 3 34
164 c26 131 30 166 20 172 -16 10 -49 2 -63 -15 -8 -10 -17 -9 -40 6 -33 20
-90 23 -120 6z m108 -78 c23 -18 24 -23 15 -62 -19 -87 -95 -160 -133 -128
-21 17 -19 96 4 146 29 65 68 80 114 44z"/>
<path d="M7444 2951 c-46 -21 -86 -68 -102 -121 -37 -119 -4 -202 83 -215 24
-4 63 -4 87 0 110 18 195 194 142 296 -29 57 -130 76 -210 40z m126 -70 c38
-71 -23 -201 -94 -201 -44 0 -56 16 -56 71 0 92 39 149 101 149 28 0 41 -5 49
-19z"/>
<path d="M7794 2960 c-16 -6 -24 -32 -48 -156 -16 -82 -31 -157 -34 -167 -4
-16 1 -18 38 -15 l44 3 21 95 c23 104 44 144 86 165 63 33 74 -13 39 -165 -11
-47 -20 -88 -20 -92 0 -5 19 -8 43 -8 l42 0 23 108 c29 141 29 192 -1 220 -40
38 -135 20 -173 -32 -16 -20 -16 -20 -11 10 7 35 -11 47 -49 34z"/>
<path d="M8188 2963 c-21 -5 -20 -4 -53 -173 -14 -74 -29 -143 -31 -152 -5
-15 2 -18 39 -18 l45 0 17 91 c10 50 27 104 39 121 43 64 97 83 111 39 3 -10
-6 -70 -19 -134 l-23 -117 43 0 c24 0 44 1 44 3 0 1 11 60 25 131 34 173 21
216 -67 216 -34 0 -92 -30 -116 -59 -12 -14 -13 -12 -7 13 5 26 -7 48 -25 45
-3 -1 -13 -3 -22 -6z"/>
</g>
</svg>
